<svg width="116.039990234375px" height="110.039990234375px" xmlns="http://www.w3.org/2000/svg" viewBox="191.9800048828125 19.9800048828125 116.039990234375 110.039990234375" style="background: rgba(0, 0, 0, 0.75);" preserveAspectRatio="xMidYMid"><defs><filter id="editing-hole" x="-100%" y="-100%" width="300%" height="300%"><feFlood flood-color="#182731" result="black"></feFlood><feMorphology operator="dilate" radius="2" in="SourceGraphic" result="erode"></feMorphology><feGaussianBlur in="erode" stdDeviation="4" result="blur"></feGaussianBlur><feOffset in="blur" dx="2" dy="2" result="offset"></feOffset><feComposite operator="atop" in="offset" in2="black" result="merge"></feComposite><feComposite operator="in" in="merge" in2="SourceGraphic" result="inner-shadow"></feComposite></filter></defs><g filter="url(#editing-hole)"><g transform="translate(216.33500719070435, 95.89500045776367)"><path d="M17.09-41.34L17.09-41.34Q21.50-41.34 26.24-39.42L26.24-39.42L25.41-34.50L24.51-34.24L24.51-34.24Q22.66-35.65 20.58-36.42L20.58-36.42L20.58-36.42Q18.50-37.18 16.45-37.18L16.45-37.18L16.45-37.18Q14.08-37.18 12.32-36.22L12.32-36.22L12.32-36.22Q10.56-35.26 9.63-33.73L9.63-33.73L9.63-33.73Q8.70-32.19 8.70-30.53L8.70-30.53L8.70-30.53Q8.70-28.80 9.76-27.49L9.76-27.49L9.76-27.49Q10.82-26.18 12.42-25.22L12.42-25.22L12.42-25.22Q14.02-24.26 16.77-22.91L16.77-22.91L16.77-22.91Q20.22-21.31 22.34-19.94L22.34-19.94L22.34-19.94Q24.45-18.56 25.95-16.45L25.95-16.45L25.95-16.45Q27.46-14.34 27.46-11.33L27.46-11.33L27.46-11.33Q27.46-8.13 25.73-5.44L25.73-5.44L25.73-5.44Q24-2.75 20.86-1.15L20.86-1.15L20.86-1.15Q17.73 0.45 13.70 0.45L13.70 0.45L13.70 0.45Q11.01 0.45 8.10-0.29L8.10-0.29L8.10-0.29Q5.18-1.02 2.69-2.43L2.69-2.43L3.33-7.68L4.03-8L4.03-8Q6.27-5.82 8.99-4.77L8.99-4.77L8.99-4.77Q11.71-3.71 14.21-3.71L14.21-3.71L14.21-3.71Q16.64-3.71 18.53-4.67L18.53-4.67L18.53-4.67Q20.42-5.63 21.41-7.23L21.41-7.23L21.41-7.23Q22.40-8.83 22.40-10.62L22.40-10.62L22.40-10.62Q22.40-13.31 20.35-14.94L20.35-14.94L20.35-14.94Q18.30-16.58 14.14-18.50L14.14-18.50L14.14-18.50Q10.75-20.16 8.70-21.47L8.70-21.47L8.70-21.47Q6.66-22.78 5.18-24.86L5.18-24.86L5.18-24.86Q3.71-26.94 3.71-29.95L3.71-29.95L3.71-29.95Q3.71-33.09 5.41-35.71L5.41-35.71L5.41-35.71Q7.10-38.34 10.14-39.84L10.14-39.84L10.14-39.84Q13.18-41.34 17.09-41.34L17.09-41.34ZM52.61-41.34L52.61-41.34Q59.07-41.34 64.64-38.46L64.64-38.46L63.62-33.60L62.98-33.47L62.98-33.47Q59.90-35.39 57.31-36.22L57.31-36.22L57.31-36.22Q54.72-37.06 51.84-37.06L51.84-37.06L51.84-37.06Q37.95-37.06 37.95-19.90L37.95-19.90L37.95-19.90Q37.95-11.65 41.18-7.78L41.18-7.78L41.18-7.78Q44.42-3.90 51.20-3.90L51.20-3.90L51.20-3.90Q52.99-3.90 54.82-4.22L54.82-4.22L54.82-4.22Q56.64-4.54 59.52-5.44L59.52-5.44L59.65-10.24L59.58-16.38L64.38-16.77L64.26-10.94L64.51-1.98L64.51-1.98Q60.35-0.70 57.15-0.13L57.15-0.13L57.15-0.13Q53.95 0.45 50.94 0.45L50.94 0.45L50.94 0.45Q41.79 0.45 37.22-4.74L37.22-4.74L37.22-4.74Q32.64-9.92 32.64-19.71L32.64-19.71L32.64-19.71Q32.64-30.27 37.82-35.81L37.82-35.81L37.82-35.81Q43.01-41.34 52.61-41.34L52.61-41.34Z" fill="rgba(100%,100%,100%,0.95)"></path></g></g><style>text {
  font-size: 64px;
  font-family: Arial Black;
  dominant-baseline: central;
  text-anchor: middle;
}</style></svg>